<?xml version="1.0" encoding="UTF-8" standalone="no"?>
<svg width="489px" height="560px" viewBox="0 0 489 560" version="1.1" xmlns="http://www.w3.org/2000/svg" xmlns:xlink="http://www.w3.org/1999/xlink">
    <defs></defs>
    <g id="Page-1" stroke="none" stroke-width="1" fill="none" fill-rule="evenodd">
        <g id="Wolf_blue" transform="translate(-33.000000, -37.000000)">
            <polygon class="block" id="Triangle-2-Copy-4" fill="#000000" transform="translate(113.131225, 120.949029) rotate(-30.000000) translate(-113.131225, -120.949029) " points="113.131225 24.5903903 188.131225 217.307667 38.1312246 217.307667"></polygon>
            <polygon class="block" id="Triangle-2-Copy-12" fill="#000000" transform="translate(137.926403, 124.083756) rotate(-39.000000) translate(-137.926403, -124.083756) " points="137.926403 27.7251176 212.926403 220.442395 62.9264032 220.442395"></polygon>
            <polygon class="block" id="Triangle-2-Copy-13" fill="#000000" transform="translate(424.926403, 126.083756) scale(-1, 1) rotate(-39.000000) translate(-424.926403, -126.083756) " points="424.926403 29.7251176 499.926403 222.442395 349.926403 222.442395"></polygon>
            <polygon class="block" id="Triangle-2-Copy-5" fill="#000000" transform="translate(444.131225, 120.949029) rotate(30.000000) translate(-444.131225, -120.949029) " points="444.131225 24.5903903 519.131225 217.307667 369.131225 217.307667"></polygon>
            <polygon class="block" id="Polygon-1" fill="#000000" transform="translate(277.421525, 374.604582) rotate(180.000000) translate(-277.421525, -374.604582) " points="277.421525 153 521.843049 322.290836 428.482335 596.209164 126.360715 596.209164 33 322.290836"></polygon>
            <polygon class="block" id="Polygon-1-Copy-2" stroke="#000000" fill="#B5B4B4" transform="translate(275.919998, 375.000000) rotate(180.000000) translate(-275.919998, -375.000000) " points="275.919998 167 515.839996 325.897861 424.198712 583 127.641285 583 36 325.897861"></polygon>
             <polygon class="block" id="Polygon-1-Copy" fill="#0051CD" transform="translate(276.421525, 372.604582) rotate(180.000000) translate(-276.421525, -372.604582) " points="276.421525 175 500.843049 325.956468 415.121655 570.209164 137.721395 570.209164 52 325.956468"></polygon>
            <polygon class="block" id="Triangle-6" fill="#060606" points="277.5 124 383 249 172 249"></polygon>
            <polygon class="block" id="Triangle-6-Copy-2" fill="#474747" points="278 149 328 249 228 249"></polygon>
            <polygon class="block" id="Triangle-6-Copy" fill="#0051CD" transform="translate(278.500000, 257.500000) rotate(180.000000) translate(-278.500000, -257.500000) " points="278.5 195 341 320 216 320"></polygon>
            <polygon class="block" id="Triangle-1" fill="#000000" points="277 290 331 415 223 415"></polygon>
            <polygon class="block" id="Triangle-1-Copy" fill="#404040" transform="translate(222.737088, 368.313801) rotate(35.000000) translate(-222.737088, -368.313801) " points="222.737088 305.813801 239.708347 430.813801 205.765829 430.813801"></polygon>
            <polygon class="block" id="Triangle-1-Copy-5" fill="#404040" transform="translate(267.988682, 344.702188) rotate(12.000000) translate(-267.988682, -344.702188) " points="267.988682 304.702188 282.988682 384.702188 252.988682 384.702188"></polygon>
            <polygon class="block" id="Triangle-1-Copy-6" fill="#DDDBDB" transform="translate(283.011318, 344.702188) scale(-1, 1) rotate(12.000000) translate(-283.011318, -344.702188) " points="283.011318 304.702188 298.011318 384.702188 268.011318 384.702188"></polygon>
            <polygon class="block" id="Triangle-1-Copy-3" fill="#B9B9B9" transform="translate(207.300777, 358.852377) rotate(52.000000) translate(-207.300777, -358.852377) " points="207.300777 296.352377 224.272037 421.352377 190.329518 421.352377"></polygon>
            <polygon class="block" id="Triangle-1-Copy-4" fill="#B9B9B9" transform="translate(343.699223, 350.852377) scale(-1, 1) rotate(52.000000) translate(-343.699223, -350.852377) " points="343.699223 288.352377 360.670482 413.352377 326.727963 413.352377"></polygon>
            <polygon class="block" id="Triangle-1-Copy-2" fill="#404040" transform="translate(330.750569, 362.931317) scale(-1, 1) rotate(35.000000) translate(-330.750569, -362.931317) " points="330.750569 300.431317 347.721828 425.431317 313.77931 425.431317"></polygon>
            <polygon class="block" id="Polygon-2" fill="#747373" transform="translate(277.000000, 436.000000) rotate(-180.000000) translate(-277.000000, -436.000000) " points="277 393 328.357052 422.712269 308.740404 470.787731 245.259596 470.787731 225.642948 422.712269"></polygon>
            <polygon class="block" id="Polygon-2-Copy" fill="#747373" transform="translate(277.000000, 436.000000) rotate(-180.000000) translate(-277.000000, -436.000000) " points="277 393 328.357052 422.712269 308.740404 470.787731 245.259596 470.787731 225.642948 422.712269"></polygon>
            <polygon class="block" id="Triangle-2" fill="#0051CD" transform="translate(102.435245, 105.265372) rotate(-30.000000) translate(-102.435245, -105.265372) " points="102.435245 51.2653718 151.435245 159.265372 53.4352448 159.265372"></polygon>
            <polygon class="block" id="Triangle-2-Copy-2" fill="#000000" transform="translate(113.966334, 123.619546) rotate(-30.000000) translate(-113.966334, -123.619546) " points="113.966334 96.2307621 147.76666 151.00833 80.1660069 151.00833"></polygon>
            <polygon class="block" id="Triangle-2-Copy-10" fill="#656565" transform="translate(119.720694, 127.210181) rotate(-30.000000) translate(-119.720694, -127.210181) " points="119.720694 109.820181 142.020693 144.60018 97.4206944 144.60018"></polygon>
            <polygon class="block" id="Triangle-2-Copy-6" fill="#807F7F" transform="translate(147.207708, 165.610599) scale(-1, 1) rotate(-28.000000) translate(-147.207708, -165.610599) " points="147.207708 138.720599 181.007707 192.500598 113.407709 192.500598"></polygon>
            <polygon class="block" id="Triangle-2-Copy-8" fill="#000000" transform="translate(145.766048, 169.702191) scale(-1, 1) rotate(-28.000000) translate(-145.766048, -169.702191) " points="145.766048 150.312191 172.566047 189.09219 118.966049 189.09219"></polygon>
            <polygon class="block" id="Triangle-2-Copy-7" fill="#807F7F" transform="translate(403.467718, 161.560611) rotate(-28.000000) translate(-403.467718, -161.560611) " points="403.467718 134.670612 437.267717 188.45061 369.667719 188.45061"></polygon>
            <polygon class="block" id="Triangle-2-Copy-9" fill="#000000" transform="translate(403.766048, 165.702191) rotate(-28.000000) translate(-403.766048, -165.702191) " points="403.766048 146.312191 430.566047 185.09219 376.966049 185.09219"></polygon>
            <polygon class="block" id="Triangle-2-Copy" fill="#0051CD" transform="translate(452.435245, 105.265372) rotate(30.000000) translate(-452.435245, -105.265372) " points="452.435245 51.2653718 501.435245 159.265372 403.435245 159.265372"></polygon>
            <polygon class="block" id="Triangle-9-Copy-2" fill="#FFFFFF" points="171 484 381 484 276 584"></polygon>
            <polygon class="block" id="Triangle-2-Copy-3" fill="#030303" transform="translate(440.966334, 123.619546) rotate(30.000000) translate(-440.966334, -123.619546) " points="440.966334 96.2307621 474.76666 151.00833 407.166007 151.00833"></polygon>
            <polygon class="block" id="Triangle-9" fill="#000000" points="176 489 376 489 276 589"></polygon>
            <polygon class="block" id="Triangle-2-Copy-11" fill="#656565" transform="translate(438.942222, 127.210181) scale(-1, 1) rotate(-30.000000) translate(-438.942222, -127.210181) " points="438.942222 109.820181 461.242221 144.60018 416.642222 144.60018"></polygon>
            <polygon class="block" id="Triangle-7" fill="#FFFBFB" points="203 538 353 538 278 582"></polygon>
            <polygon class="block" id="Triangle-7-Copy-2" fill="#605F5F" points="228 540 328 540 278 570"></polygon>
            <polygon class="block" id="Polygon-3" fill="#000000" transform="translate(276.343750, 449.480469) rotate(180.000000) translate(-276.343750, -449.480469) " points="276.34375 409.480469 323.896576 437.119789 305.733013 481.841149 246.954487 481.841149 228.790924 437.119789"></polygon>
            <rect class="block" id="Rectangle-3" fill="#000000" x="247" y="455" width="59" height="30"></rect>
            <rect class="block" id="Rectangle-1" fill="#605F5F" transform="translate(257.660521, 459.716318) rotate(-10.000000) translate(-257.660521, -459.716318) " x="252.660521" y="449.716318" width="10" height="20"></rect>
            <rect class="block" id="Rectangle-1-Copy" fill="#605F5F" transform="translate(294.660521, 459.716318) rotate(10.000000) translate(-294.660521, -459.716318) " x="289.660521" y="449.716318" width="10" height="20"></rect>
            <polygon class="block" id="Triangle-7" fill="#FFFFFF" points="234 489 277 519 191 519"></polygon>
            <polygon class="block" id="Triangle-7-Copy-3" fill="#7E7E7E" points="234 493 268 516 200 516"></polygon>
            <polygon class="block" id="Triangle-7-Copy" fill="#FFFFFF" points="320 489 363 519 277 519"></polygon>
            <polygon class="block" id="Triangle-7-Copy-4" fill="#7E7E7E" points="320 493 354 516 286 516"></polygon>
            <polygon class="block" id="Triangle-9" stroke="#000000" fill="#FFFFFF" points="267 446.432637 286 446.432637 276.5 470.432637"></polygon>
            <polygon class="block" id="Triangle-9" fill="#000000" transform="translate(159.627559, 313.086848) rotate(220.000000) translate(-159.627559, -313.086848) " points="159.627559 250.586848 234.627559 375.586848 84.6275588 375.586848"></polygon>
            <polygon class="block" id="Triangle-9-Copy" fill="#000000" transform="translate(397.627559, 313.086848) scale(-1, 1) rotate(220.000000) translate(-397.627559, -313.086848) " points="397.627559 250.586848 472.627559 375.586848 322.627559 375.586848"></polygon>
            <polygon class="block" id="Triangle-11" fill="#605F5F" transform="translate(174.858868, 290.340570) rotate(18.000000) translate(-174.858868, -290.340570) " points="174.858868 255.84057 211.358868 324.84057 138.358868 324.84057"></polygon>
            <polygon class="block" id="Triangle-11-Copy" fill="#605F5F" transform="translate(383.374649, 286.090570) rotate(-18.000000) translate(-383.374649, -286.090570) " points="383.374649 251.59057 419.874649 320.59057 346.874649 320.59057"></polygon>
            <polygon class="block" id="Triangle-13" fill="#FFFFFF" transform="translate(180.384435, 320.240027) rotate(-100.000000) translate(-180.384435, -320.240027) " points="180.384435 305.740027 195.884435 334.740027 164.884435 334.740027"></polygon>
            <polygon class="block" id="Triangle-13-Copy" fill="#FFFFFF" transform="translate(375.971259, 316.782419) scale(-1, 1) rotate(-100.000000) translate(-375.971259, -316.782419) " points="375.971259 302.282419 391.471259 331.282419 360.471259 331.282419"></polygon>
            <polygon class="block" id="Triangle-18" fill="#D8D8D8" transform="translate(182.668540, 152.668540) rotate(100.000000) translate(-182.668540, -152.668540) " points="182.66854 137.66854 197.66854 167.66854 167.66854 167.66854"></polygon>
            <polygon class="block" id="Triangle-18-Copy-2" fill="#D8D8D8" transform="translate(102.860347, 210.223619) rotate(185.000000) translate(-102.860347, -210.223619) " points="102.860347 188.223619 117.860347 232.223619 87.8603468 232.223619"></polygon>
            <polygon class="block" id="Triangle-18-Copy-3" fill="#D8D8D8" transform="translate(452.435245, 210.223619) scale(-1, 1) rotate(185.000000) translate(-452.435245, -210.223619) " points="452.435245 188.223619 467.435245 232.223619 437.435245 232.223619"></polygon>
            <polygon class="block" id="Triangle-18-Copy" fill="#D8D8D8" transform="translate(369.376839, 153.376839) scale(-1, 1) rotate(100.000000) translate(-369.376839, -153.376839) " points="369.376839 138.376839 384.376839 168.376839 354.376839 168.376839"></polygon>
            <polygon class="block" id="Triangle-18-Copy-4" fill="#D8D8D8" transform="translate(464.397438, 85.874632) scale(-1, 1) rotate(148.000000) translate(-464.397438, -85.874632) " points="464.397438 70.8746315 477.897438 100.874632 450.897438 100.874632"></polygon>
            <polygon class="block" id="Triangle-18-Copy-5" fill="#D8D8D8" transform="translate(90.397438, 85.874632) rotate(148.000000) translate(-90.397438, -85.874632) " points="90.3974383 70.8746315 103.897438 100.874632 76.8974383 100.874632"></polygon>
            <polygon class="block" id="Triangle-18-Copy-6" fill="#000000" transform="translate(88.334755, 83.334755) rotate(148.000000) translate(-88.334755, -83.334755) " points="88.3347552 75.8347552 95.8347552 90.8347552 80.8347552 90.8347552"></polygon>
            <polygon class="block" id="Triangle-18-Copy-7" fill="#000000" transform="translate(466.334755, 83.334755) scale(-1, 1) rotate(148.000000) translate(-466.334755, -83.334755) " points="466.334755 75.8347552 473.834755 90.8347552 458.834755 90.8347552"></polygon>
            <polygon class="block" id="Triangle-27-Copy-3" fill="#FFFFFF" transform="translate(462.452373, 410.077451) rotate(99.000000) translate(-462.452373, -410.077451) " points="462.452373 380.077451 512.452373 440.077451 412.452373 440.077451"></polygon>
            <polygon class="block" id="Triangle-27" fill="#000000" transform="translate(466.949587, 411.418395) rotate(99.000000) translate(-466.949587, -411.418395) " points="466.949587 386.418395 506.949587 436.418395 426.949587 436.418395"></polygon>
            <polygon class="block" id="Triangle-27-Copy-2" fill="#FFFFFF" transform="translate(89.452373, 409.077451) scale(-1, 1) rotate(99.000000) translate(-89.452373, -409.077451) " points="89.4523735 379.077451 139.452373 439.077451 39.4523735 439.077451"></polygon>
            <polygon class="block" id="Triangle-27-Copy" fill="#000000" transform="translate(83.949587, 411.418395) scale(-1, 1) rotate(99.000000) translate(-83.949587, -411.418395) " points="83.9495871 386.418395 123.949587 436.418395 43.9495871 436.418395"></polygon>
            <polygon class="block" id="Triangle-27-Copy-4" fill="#484646" transform="translate(102.860347, 410.253184) scale(-1, 1) rotate(99.000000) translate(-102.860347, -410.253184) " points="102.860347 390.253184 133.360347 430.253184 72.3603468 430.253184"></polygon>
            <polygon class="block" id="Triangle-27-Copy-5" fill="#484646" transform="translate(452.525018, 406.253184) rotate(99.000000) translate(-452.525018, -406.253184) " points="452.525018 386.253184 483.025018 426.253184 422.025018 426.253184"></polygon>
        </g>
    </g>
</svg>
